#!OML:ASF X:\für Bonn\!DataBase\2005_08_11_Bastian_Final\c3d\Bastian.ASF
:FULLY-SPECIFIED
:DEGREES
188
root -5.46858 16.2885 -3.4501 152.332 -43.036 -171.005
lowerback 17.2451 -3.17148 0.515958
upperback 5.60387 -4.63568 0.209527
thorax -3.66578 -2.53202 0.870524
lowerneck 2.165 -16.2057 -5.84421
upperneck -8.6996 -21.74 15.4119
head -0.564454 -11.3566 5.2973
rclavicle 7.36249e-014 -2.0276e-014
rhumerus -354.03 43.463 -402.614
rradius 84.6847
rwrist -16.5202
rhand -47.9827 1089.58
rfingers 7.12502
rthumb -20.6518 -19.3444
lclavicle 7.36249e-014 -2.0276e-014
lhumerus 32.9741 -36.9196 57.7672
lradius 77.3955
lwrist -151.427
lhand -22.8246 20.1471
lfingers 7.12502
lthumb 3.6125 50.0962
rfemur -5.46276 -7.55497 24.0607
rtibia 54.1495
rfoot -21.9311 -1.79933
rtoes -7.91753
lfemur -0.356087 8.05158 -10.1917
ltibia 53.4156
lfoot -23.0014 -9.39876
ltoes -6.78465
189
root -5.46701 16.4332 -3.44629 152.966 -43.3254 -171.047
lowerback 16.5541 -3.22701 0.659717
upperback 5.4193 -4.65464 0.142316
thorax -3.51325 -2.52437 0.684085
lowerneck 1.82101 -16.2923 -5.77783
upperneck -8.46888 -21.867 15.3196
head -0.44765 -11.4005 5.21082
rclavicle 1.02424e-013 1.59028e-015
rhumerus -360.071 45.413 -408.252
rradius 84.7649
rwrist -15.9714
rhand -47.6684 1091.06
rfingers 7.12502
rthumb -20.3498 -17.8919
lclavicle 1.02424e-013 1.59028e-015
lhumerus 28.9012 -38.1939 60.3089
lradius 76.7822
lwrist -151.568
lhand -22.9707 20.4328
lfingers 7.12502
lthumb 3.47137 50.3843
rfemur -5.05611 -7.50828 23.9874
rtibia 52.2468
rfoot -21.2808 -1.75184
rtoes -7.8704
lfemur 0.0317688 7.7898 -10.5922
ltibia 51.1885
lfoot -21.8506 -8.64368
ltoes -7.98338
190
root -5.4705 16.5748 -3.44492 153.607 -43.5706 -171.056
lowerback 15.7514 -3.28728 0.813313
upperback 5.25672 -4.68231 0.1255
thorax -3.27267 -2.52298 0.537865
lowerneck 1.45117 -16.362 -5.77221
upperneck -8.22979 -21.9683 15.191
head -0.324908 -11.4264 5.12026
rclavicle 1.145e-013 4.77083e-015
rhumerus -366.333 46.7362 -414.546
rradius 84.2174
rwrist -15.3844
rhand -47.2446 1092.1
rfingers 7.12502
rthumb -19.9425 -16.8957
lclavicle 1.145e-013 4.77083e-015
lhumerus 24.6374 -39.1066 63.1728
lradius 75.8298
lwrist -151.453
lhand -23.2227 20.4435
lfingers 7.12502
lthumb 3.22804 50.3989
rfemur -4.66478 -7.44963 23.9669
rtibia 50.3542
rfoot -20.6741 -1.75243
rtoes -8.17575
lfemur 0.416119 7.53935 -10.9413
ltibia 48.977
lfoot -20.6903 -7.94708
ltoes -8.79191
191
root -5.47819 16.7109 -3.44593 154.295 -43.8201 -171.154
lowerback 14.9246 -3.33432 0.942077
upperback 5.08713 -4.70065 0.0529586
thorax -3.02727 -2.51629 0.344306
lowerneck 1.20698 -16.4113 -5.71769
upperneck -8.06351 -22.0418 15.114
head -0.245435 -11.4488 5.05601
rclavicle 2.75814e-015 -1.59028e-015
rhumerus -372.673 47.3535 -421.212
rradius 83.1233
rwrist -14.9443
rhand -46.848 1092.63
rfingers 7.12502
rthumb -19.5611 -16.4011
lclavicle 2.75814e-015 -1.59028e-015
lhumerus 20.1785 -39.8022 66.1762
lradius 74.5845
lwrist -151.022
lhand -23.456 20.1472
lfingers 7.12502
lthumb 3.00269 50.1058
rfemur -4.23723 -7.35729 23.8771
rtibia 48.4887
rfoot -20.1081 -1.76841
rtoes -8.55158
lfemur 0.840489 7.26101 -11.3629
ltibia 46.7964
lfoot -19.5736 -7.28921
ltoes -9.13988
192
root -5.48534 16.8373 -3.44776 154.943 -44.013 -171.169
lowerback 14.0655 -3.37184 1.13162
upperback 4.92943 -4.70254 0.00635756
thorax -2.75199 -2.50232 0.138633
lowerneck 0.958233 -16.4643 -5.63182
upperneck -7.93032 -22.1168 15.0204
head -0.180476 -11.4735 4.98551
rclavicle -4.16702e-014 -3.18055e-015
rhumerus -378.61 47.2703 -427.671
rradius 81.581
rwrist -14.7085
rhand -46.5014 1092.7
rfingers 7.12502
rthumb -19.2279 -16.3714
lclavicle -4.16702e-014 -3.18055e-015
lhumerus 15.4424 -40.0632 69.5305
lradius 73.0297
lwrist -150.697
lhand -23.67 19.6709
lfingers 7.12502
lthumb 2.79604 49.6323
rfemur -3.85152 -7.13755 23.9066
rtibia 46.681
rfoot -19.5901 -1.84427
rtoes -8.74612
lfemur 1.21788 7.03855 -11.6626
ltibia 44.7162
lfoot -18.5328 -6.72051
ltoes -8.96537
193
root -5.49261 16.9571 -3.45076 155.593 -44.1721 -171.215
lowerback 13.218 -3.39103 1.29423
upperback 4.77277 -4.68866 -0.0463842
thorax -2.47781 -2.48099 -0.0596864
lowerneck 0.752654 -16.5027 -5.59413
upperneck -7.79985 -22.1765 14.9981
head -0.110646 -11.4934 4.94413
rclavicle -7.3923e-014 7.15625e-015
rhumerus -383.963 46.589 -433.651
rradius 79.6477
rwrist -14.6683
rhand -46.236 1092.32
rfingers 7.12502
rthumb -18.9727 -16.7749
lclavicle -7.3923e-014 7.15625e-015
lhumerus 10.4594 -39.7506 73.0773
lradius 71.2914
lwrist -150.492
lhand -23.819 18.9904
lfingers 7.12502
lthumb 2.65213 48.9537
rfemur -3.45241 -6.77189 23.9599
rtibia 44.931
rfoot -19.118 -2.02288
rtoes -9.05667
lfemur 1.59275 6.71364 -12.0029
ltibia 42.7361
lfoot -17.8223 -6.07162
ltoes -9.22769
194
root -5.49549 17.0676 -3.45454 156.359 -44.3382 -171.425
lowerback 12.4161 -3.38974 1.2544
upperback 4.60665 -4.67442 -0.0932412
thorax -2.22003 -2.46101 -0.135467
lowerneck 0.563166 -16.5265 -5.52395
upperneck -7.71591 -22.2093 14.9098
head -0.0714792 -11.5 4.88822
rclavicle 5.54361e-014 1.59028e-015
rhumerus -388.54 45.5036 -438.898
rradius 77.39
rwrist -14.9394
rhand -46.1007 1091.68
rfingers 7.12502
rthumb -18.8425 -17.4226
lclavicle 5.54361e-014 1.59028e-015
lhumerus 5.46144 -38.6993 76.6664
lradius 69.3613
lwrist -150.586
lhand -23.9078 18.177
lfingers 7.12502
lthumb 2.56636 48.1413
rfemur -3.11104 -6.20543 23.9515
rtibia 43.279
rfoot -18.7488 -2.34898
rtoes -9.45215
lfemur 1.8858 6.29706 -12.4813
ltibia 40.9336
lfoot -17.5609 -5.53175
ltoes -9.20739
195
root -5.49776 17.1736 -3.45793 157.27 -44.5033 -171.813
lowerback 11.5963 -3.36626 1.10851
upperback 4.44046 -4.64364 -0.190265
thorax -1.94653 -2.43338 -0.207091
lowerneck 0.41543 -16.5467 -5.46717
upperneck -7.68755 -22.2383 14.8975
head -0.0448641 -11.511 4.86105
rclavicle 1.41733e-013 -2.06736e-014
rhumerus -392.386 43.9626 -443.425
rradius 74.7159
rwrist -15.4279
rhand -45.9925 1091.22
rfingers 7.12502
rthumb -18.7385 -17.8985
lclavicle 1.41733e-013 -2.06736e-014
lhumerus 0.688147 -36.9529 80.0353
lradius 67.2958
lwrist -151.035
lhand -23.8103 17.3502
lfingers 7.12502
lthumb 2.66052 47.3134
rfemur -2.83474 -5.30296 23.8992
rtibia 41.737
rfoot -18.497 -2.98994
rtoes -10.6005
lfemur 2.09563 5.97021 -13.0544
ltibia 39.3258
lfoot -17.5834 -5.16899
ltoes -8.50576
196
root -5.49897 17.2725 -3.46142 158.428 -44.67 -172.383
lowerback 10.6723 -3.32195 0.81898
upperback 4.23901 -4.59503 -0.306727
thorax -1.64146 -2.39664 -0.225775
lowerneck 0.260354 -16.5563 -5.446
upperneck -7.65002 -22.2547 14.9122
head -0.008355 -11.515 4.84434
rclavicle 2.57426e-014 -2.38542e-014
rhumerus -395.617 41.8993 -447.272
rradius 71.7276
rwrist -16.1503
rhand -45.8648 1091.11
rfingers 7.12502
rthumb -18.6157 -18.0226
lclavicle 2.57426e-014 -2.38542e-014
lhumerus -3.72587 -34.5217 83.0117
lradius 65.1354
lwrist -151.88
lhand -23.6484 16.6286
lfingers 7.12502
lthumb 2.81688 46.5897
rfemur -2.75777 -4.24541 23.7443
rtibia 40.3472
rfoot -18.351 -3.75103
rtoes -11.9009
lfemur 2.09886 5.78187 -13.7404
ltibia 37.9505
lfoot -17.8538 -4.8996
ltoes -7.431
